<svg
  xmlns="http://www.w3.org/2000/svg"
  width="24"
  height="24"
  viewBox="0 0 24 24"
  fill="none"
  stroke="hsl(220 85% 55%)"
  stroke-width="2"
  stroke-linecap="round"
  stroke-linejoin="round"
>
  <path d="M21 10V8a2 2 0 0 0-1-1.73l-7-4a2 2 0 0 0-2 0l-7 4A2 2 0 0 0 3 8v2" />
  <path d="M3 14v2a2 2 0 0 0 1 1.73l7 4a2 2 0 0 0 2 0l7-4A2 2 0 0 0 21 16v-2" />
  <path d="M12 22V12" />
  <path d="M12 12l-8-4.5" />
  <path d="m20.5 7.5-8 4.5" />
  <path d="M3.27 6.96 12 12.01l8.73-5.05" />
</svg>
